<?xml version="1.0" encoding="utf-8"?>
<!-- Generator: Adobe Illustrator 17.1.0, SVG Export Plug-In . SVG Version: 6.00 Build 0)  -->
<!DOCTYPE svg PUBLIC "-//W3C//DTD SVG 1.1//EN" "http://www.w3.org/Graphics/SVG/1.1/DTD/svg11.dtd">
<svg version="1.1" id="Default" xmlns="http://www.w3.org/2000/svg" xmlns:xlink="http://www.w3.org/1999/xlink" x="0px" y="0px"
	 viewBox="0 0 183.45 183.45" enable-background="new 0 0 183.45 183.45" xml:space="preserve">
<path fill="#494949" d="M160.09,105.68c0.18-0.91,0.37-1.81,0.55-2.72h22.12c0.92-7.46,0.92-15.01,0-22.47h-22.12
	c-0.18-0.91-0.37-1.81-0.55-2.72c-1.79-8.75-5.23-17.07-10.16-24.52c-0.51-0.77-1.02-1.54-1.53-2.31
	c5.22-5.21,10.43-10.43,15.64-15.64c-4.62-5.93-9.96-11.26-15.89-15.89c-5.21,5.21-10.42,10.42-15.64,15.64
	c-0.77-0.51-1.54-1.02-2.31-1.53c-7.45-4.93-15.77-8.37-24.52-10.16c-0.91-0.18-1.81-0.37-2.72-0.55V0.69
	c-7.46-0.92-15.01-0.92-22.47,0v22.12c-0.91,0.18-1.81,0.37-2.72,0.55c-8.75,1.79-17.07,5.23-24.52,10.16
	c-0.77,0.51-1.54,1.02-2.31,1.53c-5.21-5.22-10.43-10.43-15.64-15.64c-5.93,4.63-11.27,9.96-15.89,15.89
	c5.21,5.21,10.42,10.43,15.64,15.64c-0.51,0.77-1.02,1.54-1.53,2.31c-4.93,7.45-8.37,15.77-10.16,24.52
	c-0.18,0.91-0.37,1.81-0.55,2.72H0.69c-0.92,7.46-0.92,15.01,0,22.47h22.12c0.18,0.91,0.37,1.81,0.55,2.72
	c1.79,8.75,5.23,17.07,10.16,24.52c0.51,0.77,1.02,1.54,1.53,2.31l-15.64,15.64c4.62,5.93,9.96,11.27,15.89,15.89
	c5.21-5.21,10.43-10.42,15.64-15.64c0.77,0.51,1.54,1.02,2.31,1.53c7.45,4.93,15.77,8.37,24.52,10.16c0.91,0.18,1.81,0.37,2.72,0.55
	v22.12c7.46,0.92,15.01,0.92,22.47,0v-22.12c0.91-0.18,1.81-0.37,2.72-0.55c8.75-1.79,17.07-5.23,24.52-10.16
	c0.77-0.51,1.54-1.02,2.31-1.53c5.22,5.22,10.43,10.43,15.64,15.64c5.93-4.62,11.27-9.96,15.89-15.89l-15.64-15.64
	c0.51-0.77,1.02-1.54,1.53-2.31C154.86,122.75,158.3,114.43,160.09,105.68z M142.51,111.83c-2.75,6.94-6.89,13.24-12.17,18.52
	c-5.27,5.27-11.57,9.41-18.51,12.16c-6.4,2.53-13.22,3.83-20.1,3.83c-6.89,0-13.7-1.3-20.11-3.83c-6.94-2.75-13.24-6.89-18.52-12.17
	c-5.27-5.27-9.41-11.57-12.16-18.51c-2.53-6.4-3.83-13.22-3.83-20.1c0-6.89,1.3-13.7,3.83-20.11c2.75-6.94,6.89-13.24,12.17-18.51
	c5.27-5.28,11.57-9.42,18.51-12.17c6.41-2.53,13.22-3.83,20.11-3.83c6.88,0,13.7,1.3,20.1,3.83c6.94,2.75,13.24,6.89,18.52,12.17
	c5.27,5.27,9.41,11.57,12.16,18.51c2.53,6.41,3.83,13.22,3.83,20.11C146.34,98.61,145.04,105.43,142.51,111.83z"/>
</svg>
